<svg xmlns="http://www.w3.org/2000/svg" viewBox="0 0 30 30" width="30" height="30">
  <!-- Google "G" colored logo -->
  <path fill="#4285F4" d="M28.2 15.31c0-.97-.09-1.9-.25-2.81H15v5.32h7.4c-.32 1.71-1.3 3.16-2.76 4.13v3.44h4.47c2.61-2.4 4.09-5.93 4.09-10.09z"/>
  <path fill="#34A853" d="M15 29c3.7 0 6.8-1.23 9.07-3.32l-4.47-3.44c-1.23.82-2.79 1.31-4.6 1.31-3.56 0-6.57-2.4-7.65-5.63H2.74v3.56C4.99 25.56 9.69 29 15 29z"/>
  <path fill="#FBBC05" d="M7.35 17.92A8.9 8.9 0 0 1 6.9 15c0-1.01.17-1.99.44-2.92V8.52H2.74A14.97 14.97 0 0 0 1 15c0 2.38.57 4.63 1.74 6.48l4.61-3.56z"/>
  <path fill="#EA4335" d="M15 6.44c2.01 0 3.81.69 5.23 2.05l3.93-3.93C21.79 2.35 18.68 1 15 1 9.69 1 4.99 4.44 2.74 8.52l4.61 3.56C8.43 8.84 11.44 6.44 15 6.44z"/>
</svg>
